# xmcd CD database file
#
# Track frame offsets:
#	150
#	49392
#	89400
#	112375
#	151025
#	185230
#	202870
#	232060
#	245675
#	261647
#	284665
#
# Disc length: 4490 seconds
#
# Revision: 0
# Processed by: cddbd v1.5.1PL0 Copyright (c) Steve Scherf et al.
# Submitted via: CDex 1.51
#
DISCID=b011880b
DTITLE=Hampton Hawes - Northern Windows Plus
DYEAR=2003
DGENRE=Jazz
TTITLE0=Playin' In The Yard
TTITLE1=Double Trouble
TTITLE2=Pink Peaches
TTITLE3=De De
TTITLE4=Stella By Starlight
TTITLE5=Sierra Morena
TTITLE6=Go Down Moses
TTITLE7=Bach
TTITLE8=Web
TTITLE9=Tune Axle Grease
TTITLE10=C and H Sugar
EXTD=YEAR: 2003
EXTT0=
EXTT1=
EXTT2=
EXTT3=
EXTT4=
EXTT5=
EXTT6=
EXTT7=
EXTT8=
EXTT9=
EXTT10=
PLAYORDER=
